<svg width="25" height="24" viewBox="0 0 25 24" fill="none" xmlns="http://www.w3.org/2000/svg">
<mask id="path-1-outside-1_12_373" maskUnits="userSpaceOnUse" x="-1" y="-1" width="26" height="26" fill="black">
<rect fill="white" x="-1" y="-1" width="26" height="26"/>
<path d="M21.6986 14.419C20.363 19.7762 14.937 23.0365 9.5792 21.7006C4.22361 20.365 0.963326 14.9387 2.29949 9.58197C3.63447 4.22419 9.06044 0.963662 14.4166 2.29923C19.7741 3.63481 23.0341 9.0617 21.6984 14.4191L21.6985 14.419H21.6986Z"/>
</mask>
<path d="M21.6986 14.419C20.363 19.7762 14.937 23.0365 9.5792 21.7006C4.22361 20.365 0.963326 14.9387 2.29949 9.58197C3.63447 4.22419 9.06044 0.963662 14.4166 2.29923C19.7741 3.63481 23.0341 9.0617 21.6984 14.4191L21.6985 14.419H21.6986Z" fill="white"/>
<path d="M21.6986 14.419L23.6392 14.9028L24.2584 12.419H21.6986V14.419ZM9.5792 21.7006L9.09526 23.6412L9.09533 23.6412L9.5792 21.7006ZM2.29949 9.58197L4.24003 10.066L4.24015 10.0655L2.29949 9.58197ZM14.4166 2.29923L13.9327 4.23981L13.9328 4.23984L14.4166 2.29923ZM21.6984 14.4191L19.7578 13.9353L18.0132 20.9328L23.1126 15.8334L21.6984 14.4191ZM21.6985 14.419V12.419H20.8701L20.2843 13.0048L21.6985 14.419ZM19.758 13.9352C18.6896 18.2206 14.3492 20.8287 10.0631 19.76L9.09533 23.6412C15.5249 25.2443 22.0364 21.3319 23.6392 14.9028L19.758 13.9352ZM10.0631 19.76C5.77938 18.6918 3.17119 14.351 4.24003 10.066L0.358942 9.09794C-1.24454 15.5264 2.66784 22.0383 9.09526 23.6412L10.0631 19.76ZM4.24015 10.0655C5.30807 5.77955 9.64856 3.17155 13.9327 4.23981L14.9005 0.358654C8.47233 -1.24423 1.96087 2.66883 0.358821 9.09842L4.24015 10.0655ZM13.9328 4.23984C18.2182 5.30816 20.8264 9.64938 19.7578 13.9353L23.639 14.903C25.2419 8.47403 21.3299 1.96146 14.9004 0.358627L13.9328 4.23984ZM23.1126 15.8334L23.1127 15.8333L20.2843 13.0048L20.2842 13.0049L23.1126 15.8334ZM21.6985 16.419H21.6986V12.419H21.6985V16.419Z" fill="#15121D" fill-opacity="0.24" mask="url(#path-1-outside-1_12_373)"/>
<g clip-path="url(#clip0_12_373)">
<path d="M7.33539 11.871V17L9.66461 15.7823V13.0887L7.33539 11.871Z" fill="#2BBDF7"/>
<path d="M7.33539 17L5 15.7823V8.21777L12 11.871V14.3008L7.33539 11.871V17Z" fill="#2891F9"/>
<path d="M12 11.8709V14.3008L14.3292 13.0887V10.6532L12 11.8709Z" fill="#2BBDF7"/>
<path d="M7.33539 7L5 8.21773L12 11.8709L14.3292 10.6532L7.33539 7Z" fill="#2B6DEF"/>
<path d="M14.3292 8.21777V15.8048L16.6646 17V9.43551L14.3292 8.21777Z" fill="#2891F9"/>
<path d="M16.6646 7L14.3292 8.21773L16.6646 9.43547L19 8.21773L16.6646 7Z" fill="#2B6DEF"/>
<path d="M19 8.21777V15.7823L16.6646 17V9.43551L19 8.21777Z" fill="#2BBDF7"/>
</g>
<defs>
<clipPath id="clip0_12_373">
<rect width="14" height="10" fill="white" transform="translate(5 7)"/>
</clipPath>
</defs>
</svg>
