<svg width="25" height="24" viewBox="0 0 25 24" fill="none" xmlns="http://www.w3.org/2000/svg">
<mask id="path-1-outside-1_12_385" maskUnits="userSpaceOnUse" x="-1" y="-1" width="26" height="26" fill="black">
<rect fill="white" x="-1" y="-1" width="26" height="26"/>
<path d="M21.6986 14.419C20.363 19.7762 14.937 23.0365 9.5792 21.7006C4.22361 20.365 0.963326 14.9387 2.29949 9.58197C3.63447 4.22419 9.06044 0.963662 14.4166 2.29923C19.7741 3.63481 23.0341 9.0617 21.6984 14.4191L21.6985 14.419H21.6986Z"/>
</mask>
<path d="M21.6986 14.419C20.363 19.7762 14.937 23.0365 9.5792 21.7006C4.22361 20.365 0.963326 14.9387 2.29949 9.58197C3.63447 4.22419 9.06044 0.963662 14.4166 2.29923C19.7741 3.63481 23.0341 9.0617 21.6984 14.4191L21.6985 14.419H21.6986Z" fill="#F3BA2F"/>
<path d="M21.6986 14.419L23.6392 14.9028L24.2584 12.419H21.6986V14.419ZM9.5792 21.7006L9.09526 23.6412L9.09533 23.6412L9.5792 21.7006ZM2.29949 9.58197L4.24003 10.066L4.24015 10.0655L2.29949 9.58197ZM14.4166 2.29923L13.9327 4.23981L13.9328 4.23984L14.4166 2.29923ZM21.6984 14.4191L19.7578 13.9353L18.0132 20.9328L23.1126 15.8334L21.6984 14.4191ZM21.6985 14.419V12.419H20.8701L20.2843 13.0048L21.6985 14.419ZM19.758 13.9352C18.6896 18.2206 14.3492 20.8287 10.0631 19.76L9.09533 23.6412C15.5249 25.2443 22.0364 21.3319 23.6392 14.9028L19.758 13.9352ZM10.0631 19.76C5.77938 18.6918 3.17119 14.351 4.24003 10.066L0.358942 9.09794C-1.24454 15.5264 2.66784 22.0383 9.09526 23.6412L10.0631 19.76ZM4.24015 10.0655C5.30807 5.77955 9.64856 3.17155 13.9327 4.23981L14.9005 0.358654C8.47233 -1.24423 1.96087 2.66883 0.358821 9.09842L4.24015 10.0655ZM13.9328 4.23984C18.2182 5.30816 20.8264 9.64938 19.7578 13.9353L23.639 14.903C25.2419 8.47403 21.3299 1.96146 14.9004 0.358627L13.9328 4.23984ZM23.1126 15.8334L23.1127 15.8333L20.2843 13.0048L20.2842 13.0049L23.1126 15.8334ZM21.6985 16.419H21.6986V12.419H21.6985V16.419Z" fill="#15121D" fill-opacity="0.24" mask="url(#path-1-outside-1_12_385)"/>
<path fill-rule="evenodd" clip-rule="evenodd" d="M11.9993 8.34671L9.40988 10.9361L9.40993 10.936L7.90332 9.42937L11.9993 5.33337L16.0967 9.4306L14.59 10.9373L11.9993 8.34671ZM6.83924 10.4932L5.33252 12.0001L6.83913 13.5065L8.34585 11.9998L6.83924 10.4932ZM9.40957 13.0641L11.999 15.6534L14.5896 13.0629L16.0971 14.5687L16.0963 14.5695L11.999 18.6667L7.90301 14.5707L7.90088 14.5686L9.40957 13.0641ZM17.1591 10.4939L15.6523 12.0006L17.159 13.5072L18.6657 12.0005L17.1591 10.4939Z" fill="white"/>
<path d="M13.5294 11.9992H13.5301L12.0013 10.4703L10.8714 11.6L10.7415 11.7299L10.4738 11.9976L10.4717 11.9997L10.4738 12.0019L12.0013 13.5296L13.5302 12.0008L13.5309 11.9999L13.5295 11.9992" fill="white"/>
</svg>
