<svg width="160" height="36" viewBox="0 0 160 36" fill="none" xmlns="http://www.w3.org/2000/svg">
<rect x="0.5" y="0.5" width="159" height="35" rx="7.5" fill="#15121D" stroke="#3DCF91"/>
<path d="M19.4531 24V12.5469H22.9141L24.9922 20.3594L27.0469 12.5469H30.5156V24H28.3672V14.9844L26.0938 24H23.8672L21.6016 14.9844V24H19.4531ZM32.7969 14.5781V12.5469H34.9922V14.5781H32.7969ZM32.7969 24V15.7031H34.9922V24H32.7969ZM44.7969 24H42.6016V19.7656C42.6016 18.8698 42.5547 18.2917 42.4609 18.0312C42.3672 17.7656 42.2135 17.5599 42 17.4141C41.7917 17.2682 41.5391 17.1953 41.2422 17.1953C40.862 17.1953 40.5208 17.2995 40.2188 17.5078C39.9167 17.7161 39.7083 17.9922 39.5938 18.3359C39.4844 18.6797 39.4297 19.3151 39.4297 20.2422V24H37.2344V15.7031H39.2734V16.9219C39.9974 15.9844 40.9089 15.5156 42.0078 15.5156C42.4922 15.5156 42.9349 15.6042 43.3359 15.7812C43.737 15.9531 44.0391 16.1745 44.2422 16.4453C44.4505 16.7161 44.5938 17.0234 44.6719 17.3672C44.7552 17.7109 44.7969 18.2031 44.7969 18.8438V24ZM50.8359 15.7031V17.4531H49.3359V20.7969C49.3359 21.474 49.349 21.8698 49.375 21.9844C49.4062 22.0938 49.4714 22.1849 49.5703 22.2578C49.6745 22.3307 49.7995 22.3672 49.9453 22.3672C50.1484 22.3672 50.4427 22.2969 50.8281 22.1562L51.0156 23.8594C50.5052 24.0781 49.9271 24.1875 49.2812 24.1875C48.8854 24.1875 48.5286 24.1224 48.2109 23.9922C47.8932 23.8568 47.6589 23.6849 47.5078 23.4766C47.362 23.263 47.2604 22.9766 47.2031 22.6172C47.1562 22.362 47.1328 21.8464 47.1328 21.0703V17.4531H46.125V15.7031H47.1328V14.0547L49.3359 12.7734V15.7031H50.8359ZM64.3594 24H62.1641V19.7656C62.1641 18.8698 62.1172 18.2917 62.0234 18.0312C61.9297 17.7656 61.776 17.5599 61.5625 17.4141C61.3542 17.2682 61.1016 17.1953 60.8047 17.1953C60.4245 17.1953 60.0833 17.2995 59.7812 17.5078C59.4792 17.7161 59.2708 17.9922 59.1562 18.3359C59.0469 18.6797 58.9922 19.3151 58.9922 20.2422V24H56.7969V15.7031H58.8359V16.9219C59.5599 15.9844 60.4714 15.5156 61.5703 15.5156C62.0547 15.5156 62.4974 15.6042 62.8984 15.7812C63.2995 15.9531 63.6016 16.1745 63.8047 16.4453C64.013 16.7161 64.1562 17.0234 64.2344 17.3672C64.3177 17.7109 64.3594 18.2031 64.3594 18.8438V24ZM66.0859 19.7344C66.0859 19.0052 66.2656 18.2995 66.625 17.6172C66.9844 16.9349 67.4922 16.4141 68.1484 16.0547C68.8099 15.6953 69.5469 15.5156 70.3594 15.5156C71.6146 15.5156 72.6432 15.9245 73.4453 16.7422C74.2474 17.5547 74.6484 18.5833 74.6484 19.8281C74.6484 21.0833 74.2422 22.125 73.4297 22.9531C72.6224 23.776 71.6042 24.1875 70.375 24.1875C69.6146 24.1875 68.888 24.0156 68.1953 23.6719C67.5078 23.3281 66.9844 22.8255 66.625 22.1641C66.2656 21.4974 66.0859 20.6875 66.0859 19.7344ZM68.3359 19.8516C68.3359 20.6745 68.5312 21.3047 68.9219 21.7422C69.3125 22.1797 69.7943 22.3984 70.3672 22.3984C70.9401 22.3984 71.4193 22.1797 71.8047 21.7422C72.1953 21.3047 72.3906 20.6693 72.3906 19.8359C72.3906 19.0234 72.1953 18.3984 71.8047 17.9609C71.4193 17.5234 70.9401 17.3047 70.3672 17.3047C69.7943 17.3047 69.3125 17.5234 68.9219 17.9609C68.5312 18.3984 68.3359 19.0286 68.3359 19.8516ZM77.9219 24L75.2969 15.7031H77.4297L78.9844 21.1406L80.4141 15.7031H82.5312L83.9141 21.1406L85.5 15.7031H87.6641L85 24H82.8906L81.4609 18.6641L80.0547 24H77.9219Z" fill="white"/>
<mask id="path-3-outside-1_12_332" maskUnits="userSpaceOnUse" x="129" y="5" width="26" height="26" fill="black">
<rect fill="white" x="129" y="5" width="26" height="26"/>
<path d="M151.699 20.419C150.363 25.7762 144.937 29.0365 139.579 27.7006C134.224 26.365 130.963 20.9387 132.299 15.582C133.634 10.2242 139.06 6.96366 144.417 8.29923C149.774 9.63481 153.034 15.0617 151.698 20.4191L151.699 20.419H151.699Z"/>
</mask>
<path d="M151.699 20.419C150.363 25.7762 144.937 29.0365 139.579 27.7006C134.224 26.365 130.963 20.9387 132.299 15.582C133.634 10.2242 139.06 6.96366 144.417 8.29923C149.774 9.63481 153.034 15.0617 151.698 20.4191L151.699 20.419H151.699Z" fill="white"/>
<path d="M151.699 20.419L153.639 20.9028L154.258 18.419H151.699V20.419ZM139.579 27.7006L139.095 29.6412L139.095 29.6412L139.579 27.7006ZM132.299 15.582L134.24 16.066L134.24 16.0655L132.299 15.582ZM144.417 8.29923L143.933 10.2398L143.933 10.2398L144.417 8.29923ZM151.698 20.4191L149.758 19.9353L148.013 26.9328L153.113 21.8334L151.698 20.4191ZM151.699 20.419V18.419H150.87L150.284 19.0048L151.699 20.419ZM149.758 19.9352C148.69 24.2206 144.349 26.8287 140.063 25.76L139.095 29.6412C145.525 31.2443 152.036 27.3319 153.639 20.9028L149.758 19.9352ZM140.063 25.76C135.779 24.6918 133.171 20.351 134.24 16.066L130.359 15.0979C128.755 21.5264 132.668 28.0383 139.095 29.6412L140.063 25.76ZM134.24 16.0655C135.308 11.7796 139.649 9.17155 143.933 10.2398L144.901 6.35865C138.472 4.75577 131.961 8.66883 130.359 15.0984L134.24 16.0655ZM143.933 10.2398C148.218 11.3082 150.826 15.6494 149.758 19.9353L153.639 20.903C155.242 14.474 151.33 7.96146 144.9 6.35863L143.933 10.2398ZM153.113 21.8334L153.113 21.8333L150.284 19.0048L150.284 19.0049L153.113 21.8334ZM151.699 22.419H151.699V18.419H151.699V22.419Z" fill="#15121D" fill-opacity="0.24" mask="url(#path-3-outside-1_12_332)"/>
<g clip-path="url(#clip0_12_332)">
<path d="M137.335 17.871V23L139.665 21.7823V19.0887L137.335 17.871Z" fill="#2BBDF7"/>
<path d="M137.335 23L135 21.7823V14.2178L142 17.871V20.3008L137.335 17.871V23Z" fill="#2891F9"/>
<path d="M142 17.8709V20.3008L144.329 19.0887V16.6532L142 17.8709Z" fill="#2BBDF7"/>
<path d="M137.335 13L135 14.2177L142 17.8709L144.329 16.6532L137.335 13Z" fill="#2B6DEF"/>
<path d="M144.329 14.2178V21.8048L146.665 23V15.4355L144.329 14.2178Z" fill="#2891F9"/>
<path d="M146.665 13L144.329 14.2177L146.665 15.4355L149 14.2177L146.665 13Z" fill="#2B6DEF"/>
<path d="M149 14.2178V21.7823L146.665 23V15.4355L149 14.2178Z" fill="#2BBDF7"/>
</g>
<mask id="path-12-outside-2_12_332" maskUnits="userSpaceOnUse" x="115" y="5" width="26" height="26" fill="black">
<rect fill="white" x="115" y="5" width="26" height="26"/>
<path d="M137.699 20.419C136.363 25.7762 130.937 29.0365 125.579 27.7006C120.224 26.365 116.963 20.9387 118.299 15.582C119.634 10.2242 125.06 6.96366 130.417 8.29923C135.774 9.63481 139.034 15.0617 137.698 20.4191L137.699 20.419H137.699Z"/>
</mask>
<path d="M137.699 20.419C136.363 25.7762 130.937 29.0365 125.579 27.7006C120.224 26.365 116.963 20.9387 118.299 15.582C119.634 10.2242 125.06 6.96366 130.417 8.29923C135.774 9.63481 139.034 15.0617 137.698 20.4191L137.699 20.419H137.699Z" fill="#F3BA2F"/>
<path d="M137.699 20.419L139.639 20.9028L140.258 18.419H137.699V20.419ZM125.579 27.7006L125.095 29.6412L125.095 29.6412L125.579 27.7006ZM118.299 15.582L120.24 16.066L120.24 16.0655L118.299 15.582ZM130.417 8.29923L129.933 10.2398L129.933 10.2398L130.417 8.29923ZM137.698 20.4191L135.758 19.9353L134.013 26.9328L139.113 21.8334L137.698 20.4191ZM137.699 20.419V18.419H136.87L136.284 19.0048L137.699 20.419ZM135.758 19.9352C134.69 24.2206 130.349 26.8287 126.063 25.76L125.095 29.6412C131.525 31.2443 138.036 27.3319 139.639 20.9028L135.758 19.9352ZM126.063 25.76C121.779 24.6918 119.171 20.351 120.24 16.066L116.359 15.0979C114.755 21.5264 118.668 28.0383 125.095 29.6412L126.063 25.76ZM120.24 16.0655C121.308 11.7796 125.649 9.17155 129.933 10.2398L130.901 6.35865C124.472 4.75577 117.961 8.66883 116.359 15.0984L120.24 16.0655ZM129.933 10.2398C134.218 11.3082 136.826 15.6494 135.758 19.9353L139.639 20.903C141.242 14.474 137.33 7.96146 130.9 6.35863L129.933 10.2398ZM139.113 21.8334L139.113 21.8333L136.284 19.0048L136.284 19.0049L139.113 21.8334ZM137.699 22.419H137.699V18.419H137.699V22.419Z" fill="#15121D" fill-opacity="0.24" mask="url(#path-12-outside-2_12_332)"/>
<path fill-rule="evenodd" clip-rule="evenodd" d="M127.999 14.3467L125.41 16.9361L125.41 16.936L123.903 15.4294L127.999 11.3334L132.097 15.4306L130.59 16.9373L127.999 14.3467ZM122.839 16.4932L121.333 18.0001L122.839 19.5065L124.346 17.9998L122.839 16.4932ZM125.41 19.0641L127.999 21.6534L130.59 19.0629L132.097 20.5687L132.096 20.5695L127.999 24.6667L123.903 20.5707L123.901 20.5686L125.41 19.0641ZM133.159 16.4939L131.652 18.0006L133.159 19.5072L134.666 18.0005L133.159 16.4939Z" fill="white"/>
<path d="M129.529 17.9992H129.53L128.001 16.4703L126.871 17.6L126.742 17.7299L126.474 17.9976L126.472 17.9997L126.474 18.0019L128.001 19.5296L129.53 18.0008L129.531 17.9999L129.53 17.9992" fill="white"/>
<circle cx="114" cy="18" r="10" fill="#6179EE"/>
<circle cx="114" cy="18" r="11" stroke="#15121D" stroke-opacity="0.24" stroke-width="2"/>
<path d="M113.973 11.9998L113.893 12.27V20.1103L113.973 20.1896L117.612 18.0384L113.973 11.9998Z" fill="#BFCAF8"/>
<path d="M113.973 11.9998L110.333 18.0384L113.973 20.1896V16.3842V11.9998Z" fill="#FFFEFF"/>
<path d="M113.972 20.8789L113.927 20.9335V23.7264L113.972 23.8573L117.613 18.7288L113.972 20.8789Z" fill="#C0CAF9"/>
<path d="M113.973 23.8572V20.8789L110.333 18.7288L113.973 23.8572Z" fill="#FFFEFF"/>
<path d="M113.972 20.1895L117.612 18.0383L113.972 16.384V20.1895Z" fill="#7F93EE"/>
<path d="M110.333 18.0383L113.973 20.1895V16.384L110.333 18.0383Z" fill="#BFCAF9"/>
<defs>
<clipPath id="clip0_12_332">
<rect width="14" height="10" fill="white" transform="translate(135 13)"/>
</clipPath>
</defs>
</svg>
